<?xml version="1.0" encoding="UTF-8"?>
<svg xmlns="http://www.w3.org/2000/svg" xmlns:xlink="http://www.w3.org/1999/xlink" width="466px" height="466px" viewBox="0 0 466 310" version="1.1">
<g id="surface1">
<rect x="0" y="0" width="466" height="310" style="fill:rgb(97.254902%,97.647059%,98.039216%);fill-opacity:1;stroke:none;"/>
<path style=" stroke:none;fill-rule:nonzero;fill:rgb(72.941176%,72.941176%,73.72549%);fill-opacity:1;" d="M 287.367188 108.5 L 178.632812 108.5 C 174.34375 108.5 170.867188 111.96875 170.867188 116.25 L 170.867188 193.75 C 170.867188 198.03125 174.34375 201.5 178.632812 201.5 L 287.367188 201.5 C 291.65625 201.5 295.132812 198.03125 295.132812 193.75 L 295.132812 116.25 C 295.132812 111.96875 291.65625 108.5 287.367188 108.5 Z M 201.933594 124 C 210.511719 124 217.464844 130.941406 217.464844 139.5 C 217.464844 148.058594 210.511719 155 201.933594 155 C 193.355469 155 186.398438 148.058594 186.398438 139.5 C 186.398438 130.941406 193.355469 124 201.933594 124 Z M 279.601562 170.5 L 279.601562 186 L 186.398438 186 L 186.398438 170.5 L 199.679688 163.835938 C 201.101562 163.140625 202.765625 163.140625 204.1875 163.835938 L 217.464844 170.5 L 254.203125 141.203125 C 255.503906 140.273438 257.253906 140.273438 258.550781 141.203125 L 279.601562 155 Z M 279.601562 170.5 "/>
</g>
</svg>
